<svg width="168" height="56" viewBox="0 0 168 56" fill="none" xmlns="http://www.w3.org/2000/svg">
<rect x="4.6521" y="5" width="162.348" height="50" rx="23" fill="#0F172A" stroke="#0F172A" stroke-width="2"/>
<rect x="1" y="1" width="162.348" height="50" rx="23" fill="#F43F5E" stroke="#0F172A" stroke-width="2"/>
<path d="M48.5 22L56.5 30" stroke="white" stroke-width="2" stroke-linecap="round"/>
<path d="M56.5 22L48.5 30" stroke="white" stroke-width="2" stroke-linecap="round"/>
<path d="M69.675 23.528C69.6323 23.6667 69.5043 23.8587 69.291 24.104C69.0777 24.3493 68.8483 24.584 68.603 24.808C68.2723 25.1173 67.8883 25.4587 67.451 25.832C67.0137 26.1947 66.5817 26.5467 66.155 26.888L65.211 25.768C65.723 25.3733 66.2083 24.9787 66.667 24.584C67.1363 24.1893 67.5097 23.8533 67.787 23.576C67.9897 23.3733 68.155 23.1813 68.283 23C68.4217 22.808 68.5283 22.616 68.603 22.424C68.6883 22.2213 68.747 22.008 68.779 21.784C68.811 21.56 68.827 21.3093 68.827 21.032V19.096H70.427V20.968C70.427 21.2133 70.4323 21.4373 70.443 21.64C70.4643 21.832 70.5017 22.0133 70.555 22.184C70.6083 22.3547 70.6883 22.5253 70.795 22.696C70.9123 22.856 71.067 23.0213 71.259 23.192C71.6323 23.5333 72.0377 23.8853 72.475 24.248C72.923 24.6 73.387 24.9467 73.867 25.288L72.939 26.392C72.523 26.0827 72.123 25.7733 71.739 25.464C71.3657 25.1547 70.987 24.84 70.603 24.52C70.3577 24.3173 70.155 24.1307 69.995 23.96C69.8457 23.7893 69.7443 23.6453 69.691 23.528H69.675ZM67.659 27.832H76.987V33.384H75.403V29.192H67.659V27.832ZM79.083 23.352H76.987V27.064H75.419V18.488H76.987V21.976H79.083V23.352ZM83.6935 26.056C83.6402 26.216 83.5495 26.3867 83.4215 26.568C83.3042 26.7387 83.1655 26.92 83.0055 27.112C82.6855 27.496 82.3282 27.9013 81.9335 28.328C81.5388 28.7547 81.1282 29.1867 80.7015 29.624L79.6295 28.552C80.1095 28.0933 80.5575 27.6453 80.9735 27.208C81.3895 26.7707 81.7682 26.328 82.1095 25.88C82.4295 25.464 82.6428 25.0533 82.7495 24.648C82.8562 24.2427 82.9095 23.8107 82.9095 23.352V21.24H80.3815V19.912H86.8135V21.24H84.4455V23.352C84.4455 23.8107 84.5042 24.2373 84.6215 24.632C84.7495 25.0267 84.9735 25.432 85.2935 25.848C85.6348 26.2853 85.9868 26.7013 86.3495 27.096C86.7122 27.4907 87.1335 27.9173 87.6135 28.376L86.5415 29.432C86.1148 29.0053 85.7255 28.6107 85.3735 28.248C85.0322 27.8747 84.7015 27.496 84.3815 27.112C84.2215 26.92 84.0828 26.7387 83.9655 26.568C83.8482 26.3867 83.7628 26.216 83.7095 26.056H83.6935ZM88.3175 18.792H89.8695V32.52H88.3175V24.696H86.0775V23.32H88.3175V18.792ZM92.7975 33.24H91.2455V18.488H92.7975V33.24ZM98.88 29.944C98.3147 29.944 97.8133 29.8587 97.376 29.688C96.9387 29.5067 96.5653 29.272 96.256 28.984C95.9467 28.696 95.712 28.3653 95.552 27.992C95.392 27.6187 95.312 27.24 95.312 26.856V25.928C95.312 25.544 95.392 25.1653 95.552 24.792C95.712 24.4187 95.9467 24.088 96.256 23.8C96.5653 23.5013 96.9387 23.2667 97.376 23.096C97.8133 22.9147 98.3147 22.824 98.88 22.824C99.4347 22.824 99.9307 22.9147 100.368 23.096C100.816 23.2667 101.195 23.5013 101.504 23.8C101.813 24.088 102.048 24.4187 102.208 24.792C102.368 25.1653 102.448 25.544 102.448 25.928V26.856C102.448 27.24 102.368 27.6187 102.208 27.992C102.048 28.3653 101.813 28.696 101.504 28.984C101.195 29.272 100.816 29.5067 100.368 29.688C99.9307 29.8587 99.4347 29.944 98.88 29.944ZM108.336 25.72H106.064V33.24H104.48V18.488H106.064V24.344H108.336V25.72ZM98.88 24.152C98.24 24.152 97.7333 24.3333 97.36 24.696C96.9867 25.048 96.8 25.5173 96.8 26.104V26.68C96.8 27.2667 96.9867 27.736 97.36 28.088C97.7333 28.44 98.24 28.616 98.88 28.616C99.52 28.616 100.027 28.44 100.4 28.088C100.773 27.736 100.96 27.2667 100.96 26.68V26.104C100.96 25.5173 100.773 25.048 100.4 24.696C100.027 24.3333 99.52 24.152 98.88 24.152ZM98.096 20.664V18.584H99.68V20.664H103.104V22.008H94.576V20.664H98.096ZM109.699 28.76C110.552 28.2587 111.272 27.816 111.859 27.432C112.456 27.0373 112.952 26.68 113.347 26.36C113.741 26.0293 114.051 25.7253 114.275 25.448C114.499 25.16 114.664 24.8773 114.771 24.6C114.888 24.312 114.957 24.0133 114.979 23.704C115.011 23.3947 115.027 23.048 115.027 22.664V21.208H109.987V19.848H116.595V22.68C116.595 23.16 116.579 23.5973 116.547 23.992C116.525 24.376 116.451 24.744 116.323 25.096C116.195 25.4373 116.003 25.7787 115.747 26.12C115.501 26.4507 115.149 26.808 114.691 27.192C114.243 27.576 113.677 27.9973 112.995 28.456C112.323 28.9147 111.501 29.4373 110.531 30.024L109.699 28.76ZM119.715 33.24V18.488H121.299V33.24H119.715Z" fill="white"/>
</svg>
