<svg width="168" height="56" viewBox="0 0 168 56" fill="none" xmlns="http://www.w3.org/2000/svg">
<rect x="4.6521" y="5" width="162.348" height="50" rx="23" fill="#0F172A" stroke="#0F172A" stroke-width="2"/>
<rect x="1" y="1" width="162.348" height="50" rx="23" fill="#E2E8F0" stroke="#0F172A" stroke-width="2"/>
<path d="M44.9565 25L49.4565 29.5L56.9565 22" stroke="#0F172A" stroke-width="2" stroke-linecap="round" stroke-linejoin="round"/>
<path d="M69.8115 33.24V28.168H63.8435V26.824H77.3795V28.168H71.4115V33.24H69.8115ZM72.3875 24.024C71.8542 23.7573 71.4489 23.5227 71.1715 23.32C70.9049 23.1173 70.7182 22.9253 70.6115 22.744H70.5955C70.4995 22.9253 70.3129 23.1227 70.0355 23.336C69.7582 23.5387 69.3529 23.7733 68.8195 24.04C68.3822 24.2533 67.8702 24.4933 67.2835 24.76C66.6969 25.0267 66.0729 25.288 65.4115 25.544L64.7875 24.248C65.3849 24.024 65.9929 23.7787 66.6115 23.512C67.2302 23.2347 67.7955 22.9573 68.3075 22.68C68.5742 22.5307 68.8035 22.3813 68.9955 22.232C69.1875 22.0827 69.3422 21.9173 69.4595 21.736C69.5875 21.544 69.6782 21.336 69.7315 21.112C69.7849 20.8773 69.8115 20.6107 69.8115 20.312V19H71.3955V20.312C71.3955 20.6107 71.4222 20.8773 71.4755 21.112C71.5289 21.336 71.6142 21.544 71.7315 21.736C71.8489 21.9173 71.9982 22.0827 72.1795 22.232C72.3715 22.3813 72.6062 22.5307 72.8835 22.68C73.3955 22.9573 73.9609 23.2347 74.5795 23.512C75.1982 23.7787 75.8062 24.024 76.4035 24.248L75.7955 25.528C75.1342 25.272 74.5102 25.0107 73.9235 24.744C73.3369 24.4773 72.8249 24.2373 72.3875 24.024ZM81.734 30.216C81.734 29.832 81.8354 29.4693 82.038 29.128C82.2514 28.7867 82.55 28.488 82.934 28.232C83.3287 27.976 83.8034 27.7787 84.358 27.64C84.9234 27.4907 85.558 27.416 86.262 27.416C86.966 27.416 87.5954 27.4907 88.15 27.64C88.7154 27.7787 89.19 27.976 89.574 28.232C89.9687 28.488 90.2674 28.7867 90.47 29.128C90.6834 29.4693 90.79 29.832 90.79 30.216V30.856C90.79 31.24 90.6834 31.6027 90.47 31.944C90.2674 32.2853 89.9687 32.584 89.574 32.84C89.19 33.096 88.7154 33.2933 88.15 33.432C87.5954 33.5813 86.966 33.656 86.262 33.656C85.558 33.656 84.9234 33.5813 84.358 33.432C83.8034 33.2933 83.3287 33.096 82.934 32.84C82.55 32.584 82.2514 32.2853 82.038 31.944C81.8354 31.6027 81.734 31.24 81.734 30.856V30.216ZM83.158 23.944C83.1047 24.0827 82.9767 24.2747 82.774 24.52C82.5714 24.7547 82.342 24.9787 82.086 25.192C81.7447 25.4907 81.3607 25.8053 80.934 26.136C80.518 26.4667 80.086 26.7867 79.638 27.096L78.71 25.96C79.222 25.5973 79.702 25.2453 80.15 24.904C80.598 24.552 80.966 24.2373 81.254 23.96C81.446 23.768 81.6114 23.5813 81.75 23.4C81.8887 23.2187 81.9954 23.032 82.07 22.84C82.1554 22.6373 82.214 22.424 82.246 22.2C82.2887 21.9653 82.31 21.704 82.31 21.416V20.76H79.206V19.4H86.822V20.76H83.91V21.352C83.91 21.608 83.9207 21.8373 83.942 22.04C83.9634 22.2427 84.0007 22.4293 84.054 22.6C84.118 22.7707 84.2034 22.936 84.31 23.096C84.4167 23.2453 84.5607 23.4 84.742 23.56C85.1154 23.9013 85.51 24.232 85.926 24.552C86.342 24.8613 86.79 25.1707 87.27 25.48L86.374 26.632C85.958 26.344 85.5687 26.0613 85.206 25.784C84.8434 25.5067 84.47 25.208 84.086 24.888C83.8407 24.6853 83.638 24.5093 83.478 24.36C83.3287 24.2 83.2274 24.0613 83.174 23.944H83.158ZM89.238 30.312C89.238 30.12 89.1687 29.928 89.03 29.736C88.8914 29.544 88.694 29.3733 88.438 29.224C88.182 29.064 87.8674 28.9413 87.494 28.856C87.1314 28.76 86.7207 28.712 86.262 28.712C85.8034 28.712 85.3874 28.76 85.014 28.856C84.6514 28.9413 84.342 29.064 84.086 29.224C83.83 29.3733 83.6327 29.544 83.494 29.736C83.3554 29.928 83.286 30.12 83.286 30.312V30.76C83.286 30.952 83.3554 31.144 83.494 31.336C83.6327 31.528 83.83 31.6987 84.086 31.848C84.342 32.008 84.6514 32.1307 85.014 32.216C85.3874 32.312 85.8034 32.36 86.262 32.36C86.7207 32.36 87.1314 32.312 87.494 32.216C87.8674 32.1307 88.182 32.008 88.438 31.848C88.694 31.6987 88.8914 31.528 89.03 31.336C89.1687 31.144 89.238 30.952 89.238 30.76V30.312ZM89.158 27.208V23.464H86.438V22.104H89.158V18.488H90.726V27.208H89.158ZM106.361 27.352C105.721 27.416 105.102 27.4747 104.505 27.528C103.918 27.5707 103.267 27.608 102.553 27.64C101.849 27.6613 101.049 27.6827 100.153 27.704C99.2565 27.7147 98.1952 27.72 96.9685 27.72V26.36C97.7365 26.36 98.4245 26.36 99.0325 26.36C99.6512 26.36 100.227 26.3547 100.761 26.344V24.808C100.334 24.744 99.9392 24.6373 99.5765 24.488C99.2245 24.328 98.9205 24.1307 98.6645 23.896C98.4085 23.6613 98.2112 23.4 98.0725 23.112C97.9339 22.824 97.8645 22.5093 97.8645 22.168V21.496C97.8645 21.112 97.9552 20.76 98.1365 20.44C98.3285 20.1093 98.5845 19.8267 98.9045 19.592C99.2352 19.3467 99.6245 19.1547 100.073 19.016C100.521 18.8773 101.011 18.808 101.545 18.808C102.067 18.808 102.553 18.8773 103.001 19.016C103.459 19.1547 103.849 19.3467 104.169 19.592C104.499 19.8267 104.755 20.1093 104.937 20.44C105.129 20.76 105.225 21.112 105.225 21.496V22.168C105.225 22.5093 105.15 22.824 105.001 23.112C104.862 23.4 104.665 23.6613 104.409 23.896C104.153 24.1307 103.849 24.328 103.497 24.488C103.145 24.6373 102.755 24.744 102.329 24.808V26.296C103.011 26.2747 103.657 26.2427 104.265 26.2C104.873 26.1573 105.529 26.104 106.233 26.04L106.361 27.352ZM107.145 29.528V18.488H108.713V23.176H110.793V24.552H108.713V29.528H107.145ZM100.889 31.736H109.113V33.096H99.3045V28.984H100.889V31.736ZM101.545 20.136C100.851 20.136 100.318 20.2853 99.9445 20.584C99.5712 20.872 99.3845 21.2187 99.3845 21.624V22.04C99.3845 22.4453 99.5712 22.7973 99.9445 23.096C100.318 23.384 100.851 23.528 101.545 23.528C102.238 23.528 102.771 23.384 103.145 23.096C103.518 22.7973 103.705 22.4453 103.705 22.04V21.624C103.705 21.2187 103.518 20.872 103.145 20.584C102.771 20.2853 102.238 20.136 101.545 20.136ZM113.435 27.4V22.84H121.531V21H113.371V19.656H123.099V24.184H115.003V26.056H123.451V27.4H121.339V29.928H125.067V31.272H111.531V29.928H115.387V27.4H113.435ZM116.939 29.928H119.787V27.4H116.939V29.928Z" fill="#0F172A"/>
</svg>
