<svg width="16" height="16" viewBox="0 0 16 16" fill="none" xmlns="http://www.w3.org/2000/svg">
<path d="M3 10.0754C3.90129 8.3253 5.42489 5.49076 6.3691 6.08751C7.54936 6.83344 4.65236 9.12861 6.04721 10.0754C7.44206 11.0221 8.72961 5.22681 9.99571 6.0875C11.2618 6.9482 8.77253 9.21468 9.75966 10.0754C10.5494 10.7639 11.9056 8.34606 13 6.49079" stroke="#6500C3" stroke-width="3.67816" stroke-linecap="round"/>
<path d="M7.86993 6.89954C8.04055 6.89954 8.20754 7.01415 8.33575 7.22571C8.46305 7.43587 8.54474 7.73079 8.54474 8.06067C8.54473 8.39056 8.46307 8.68547 8.33575 8.89563C8.20754 9.10718 8.04055 9.2218 7.86993 9.2218C7.6994 9.2217 7.53227 9.10709 7.40411 8.89563C7.27687 8.68549 7.19612 8.39046 7.19611 8.06067C7.19611 7.7309 7.27689 7.43586 7.40411 7.22571C7.53227 7.01425 7.6994 6.89964 7.86993 6.89954Z" fill="white" stroke="#0F172A" stroke-width="0.149851"/>
<path d="M8.13269 7.349C8.23151 7.34913 8.33267 7.41377 8.41296 7.54333C8.49265 7.67206 8.5448 7.85533 8.5448 8.06091C8.54473 8.26634 8.4926 8.44887 8.41296 8.57751C8.33265 8.70717 8.23154 8.77172 8.13269 8.77185C8.03371 8.77185 7.93184 8.7074 7.85144 8.57751C7.77181 8.44887 7.72065 8.26632 7.72058 8.06091C7.72058 7.85533 7.77175 7.67206 7.85144 7.54333C7.93183 7.41353 8.03374 7.349 8.13269 7.349Z" fill="#0F172A" stroke="#0F172A" stroke-width="0.149851"/>
<path d="M9.81799 6.89954C9.98861 6.89954 10.1556 7.01415 10.2838 7.22571C10.4111 7.43587 10.4928 7.73079 10.4928 8.06067C10.4928 8.39056 10.4111 8.68547 10.2838 8.89563C10.1556 9.10718 9.98861 9.2218 9.81799 9.2218C9.64746 9.2217 9.48033 9.10709 9.35217 8.89563C9.22493 8.68549 9.14417 8.39046 9.14417 8.06067C9.14417 7.7309 9.22495 7.43586 9.35217 7.22571C9.48033 7.01425 9.64746 6.89964 9.81799 6.89954Z" fill="white" stroke="#0F172A" stroke-width="0.149851"/>
<path d="M10.0807 7.349C10.1796 7.34913 10.2807 7.41377 10.361 7.54333C10.4407 7.67206 10.4929 7.85533 10.4929 8.06091C10.4928 8.26634 10.4407 8.44887 10.361 8.57751C10.2807 8.70717 10.1796 8.77172 10.0807 8.77185C9.98177 8.77185 9.8799 8.7074 9.7995 8.57751C9.71987 8.44887 9.66871 8.26632 9.66864 8.06091C9.66864 7.85533 9.71981 7.67206 9.7995 7.54333C9.87989 7.41353 9.9818 7.349 10.0807 7.349Z" fill="#0F172A" stroke="#0F172A" stroke-width="0.149851"/>
</svg>
